<?xml version="1.0" encoding="UTF-8"?>
<svg version="1.1" xmlns="http://www.w3.org/2000/svg" width="355" height="74">
<path d="M0 0 C117.15 0 234.3 0 355 0 C355 24.42 355 48.84 355 74 C237.85 74 120.7 74 0 74 C0 49.58 0 25.16 0 0 Z " fill="#011F3F" transform="translate(0,0)"/>
<path d="M0 0 C1.46657043 -0.00472824 1.46657043 -0.00472824 2.96276855 -0.009552 C4.0262854 -0.00752777 5.08980225 -0.00550354 6.18554688 -0.00341797 C7.81127625 -0.00485306 7.81127625 -0.00485306 9.46984863 -0.00631714 C11.76652077 -0.00699912 14.06319482 -0.00514358 16.35986328 -0.00097656 C19.88904115 0.00437141 23.41809174 -0.00092097 26.94726562 -0.00732422 C29.17252632 -0.00666344 31.39778694 -0.00538228 33.62304688 -0.00341797 C34.68656372 -0.0054422 35.75008057 -0.00746643 36.8458252 -0.009552 C37.82353882 -0.00639984 38.80125244 -0.00324768 39.80859375 0 C40.67383667 0.00079559 41.53907959 0.00159119 42.43054199 0.00241089 C44.40429688 0.12939453 44.40429688 0.12939453 45.40429688 1.12939453 C45.50276654 2.68938501 45.53228305 4.25379997 45.53369141 5.81689453 C45.53684357 6.81462891 45.53999573 7.81236328 45.54324341 8.84033203 C45.54121918 9.92572266 45.53919495 11.01111328 45.53710938 12.12939453 C45.5380661 13.23541016 45.53902283 14.34142578 45.54000854 15.48095703 C45.54069054 17.82470761 45.53883491 20.16846006 45.53466797 22.51220703 C45.52932001 26.11381241 45.53461234 29.71529307 45.54101562 33.31689453 C45.54035485 35.58772814 45.53907369 37.85856167 45.53710938 40.12939453 C45.53913361 41.21478516 45.54115784 42.30017578 45.54324341 43.41845703 C45.53851517 44.91505859 45.53851517 44.91505859 45.53369141 46.44189453 C45.53289581 47.32490234 45.53210022 48.20791016 45.53128052 49.11767578 C45.40429688 51.12939453 45.40429688 51.12939453 44.40429688 52.12939453 C42.87495057 52.22778667 41.34110122 52.25737992 39.80859375 52.25878906 C38.34202332 52.2635173 38.34202332 52.2635173 36.8458252 52.26834106 C35.78230835 52.26631683 34.7187915 52.2642926 33.62304688 52.26220703 C31.9973175 52.26364212 31.9973175 52.26364212 30.33874512 52.2651062 C28.04207298 52.26578818 25.74539893 52.26393264 23.44873047 52.25976562 C19.9195526 52.25441765 16.39050201 52.25971003 12.86132812 52.26611328 C10.63606743 52.2654525 8.41080681 52.26417135 6.18554688 52.26220703 C5.12203003 52.26423126 4.05851318 52.26625549 2.96276855 52.26834106 C1.98505493 52.2651889 1.00734131 52.26203674 0 52.25878906 C-0.86524292 52.25799347 -1.73048584 52.25719788 -2.62194824 52.25637817 C-4.59570312 52.12939453 -4.59570312 52.12939453 -5.59570312 51.12939453 C-5.69417279 49.56940405 -5.7236893 48.00498909 -5.72509766 46.44189453 C-5.72824982 45.44416016 -5.73140198 44.44642578 -5.73464966 43.41845703 C-5.73262543 42.33306641 -5.7306012 41.24767578 -5.72851562 40.12939453 C-5.72947235 39.02337891 -5.73042908 37.91736328 -5.73141479 36.77783203 C-5.73209679 34.43408145 -5.73024116 32.090329 -5.72607422 29.74658203 C-5.72072626 26.14497666 -5.72601859 22.543496 -5.73242188 18.94189453 C-5.7317611 16.67106092 -5.73047994 14.40022739 -5.72851562 12.12939453 C-5.73053986 11.04400391 -5.73256409 9.95861328 -5.73464966 8.84033203 C-5.7314975 7.84259766 -5.72834534 6.84486328 -5.72509766 5.81689453 C-5.72430206 4.93388672 -5.72350647 4.05087891 -5.72268677 3.14111328 C-5.47940978 -0.7129649 -3.34826491 0.00307874 0 0 Z " fill="#E980EA" transform="translate(23.595703125,14.87060546875)"/>
<path d="M0 0 C5.61 0 11.22 0 17 0 C17 0.99 17 1.98 17 3 C17.99 3 18.98 3 20 3 C20 6.3 20 9.6 20 13 C19.01 13 18.02 13 17 13 C17 14.32 17 15.64 17 17 C11.39 17 5.78 17 0 17 C0 15.68 0 14.36 0 13 C-0.99 13 -1.98 13 -3 13 C-3 9.7 -3 6.4 -3 3 C-2.01 3 -1.02 3 0 3 C0 2.01 0 1.02 0 0 Z " fill="#D879DE" transform="translate(164,36)"/>
<path d="M0 0 C5.61 0 11.22 0 17 0 C17 1.32 17 2.64 17 4 C17.99 4 18.98 4 20 4 C20 4.99 20 5.98 20 7 C17.69 7 15.38 7 13 7 C13 6.01 13 5.02 13 4 C10.03 4 7.06 4 4 4 C4 5.98 4 7.96 4 10 C8.29 10 12.58 10 17 10 C17 10.99 17 11.98 17 13 C17.99 13 18.98 13 20 13 C20 15.31 20 17.62 20 20 C19.01 20 18.02 20 17 20 C17 21.32 17 22.64 17 24 C11.39 24 5.78 24 0 24 C0 22.68 0 21.36 0 20 C-0.99 20 -1.98 20 -3 20 C-3 19.01 -3 18.02 -3 17 C-0.69 17 1.62 17 4 17 C4 17.99 4 18.98 4 20 C6.97 20 9.94 20 13 20 C13 18.02 13 16.04 13 14 C8.71 14 4.42 14 0 14 C0 12.68 0 11.36 0 10 C-0.99 10 -1.98 10 -3 10 C-3 8.02 -3 6.04 -3 4 C-2.01 4 -1.02 4 0 4 C0 2.68 0 1.36 0 0 Z " fill="#1F2B55" transform="translate(35,29)"/>
<path d="M0 0 C5.61 0 11.22 0 17 0 C17 1.32 17 2.64 17 4 C17.99 4 18.98 4 20 4 C20 4.99 20 5.98 20 7 C17.69 7 15.38 7 13 7 C13 6.01 13 5.02 13 4 C10.03 4 7.06 4 4 4 C4 5.98 4 7.96 4 10 C8.29 10 12.58 10 17 10 C17 10.99 17 11.98 17 13 C17.99 13 18.98 13 20 13 C20 15.31 20 17.62 20 20 C19.01 20 18.02 20 17 20 C17 21.32 17 22.64 17 24 C11.39 24 5.78 24 0 24 C0 22.68 0 21.36 0 20 C-0.99 20 -1.98 20 -3 20 C-3 19.01 -3 18.02 -3 17 C-1.02 17 0.96 17 3 17 C3 17.99 3 18.98 3 20 C6.3 20 9.6 20 13 20 C13 18.02 13 16.04 13 14 C8.71 14 4.42 14 0 14 C0 12.68 0 11.36 0 10 C-0.99 10 -1.98 10 -3 10 C-3 8.02 -3 6.04 -3 4 C-2.01 4 -1.02 4 0 4 C0 2.68 0 1.36 0 0 Z " fill="#CE74D6" transform="translate(85,29)"/>
<path d="M0 0 C5.61 0 11.22 0 17 0 C17 1.32 17 2.64 17 4 C12.71 4 8.42 4 4 4 C4 4.99 4 5.98 4 7 C3.01 7 2.02 7 1 7 C1 10.3 1 13.6 1 17 C1.99 17 2.98 17 4 17 C4 17.99 4 18.98 4 20 C5.98 20 7.96 20 10 20 C10 18.02 10 16.04 10 14 C9.01 14 8.02 14 7 14 C7 12.68 7 11.36 7 10 C10.3 10 13.6 10 17 10 C17 14.62 17 19.24 17 24 C11.72 24 6.44 24 1 24 C0.67 22.68 0.34 21.36 0 20 C-0.99 20 -1.98 20 -3 20 C-3 19.01 -3 18.02 -3 17 C-3.99 17 -4.98 17 -6 17 C-6 13.7 -6 10.4 -6 7 C-5.01 7 -4.02 7 -3 7 C-3 6.01 -3 5.02 -3 4 C-2.01 4 -1.02 4 0 4 C0 2.68 0 1.36 0 0 Z " fill="#D176D8" transform="translate(246,29)"/>
<path d="M0 0 C5.61 0 11.22 0 17 0 C17 0.99 17 1.98 17 3 C17.99 3 18.98 3 20 3 C20 5.31 20 7.62 20 10 C14.72 10 9.44 10 4 10 C4 10.99 4 11.98 4 13 C8.29 13 12.58 13 17 13 C17 14.32 17 15.64 17 17 C11.39 17 5.78 17 0 17 C0 15.68 0 14.36 0 13 C-0.99 13 -1.98 13 -3 13 C-3 9.7 -3 6.4 -3 3 C-2.01 3 -1.02 3 0 3 C0 2.01 0 1.02 0 0 Z " fill="#D678DD" transform="translate(322,36)"/>
<path d="M0 0 C6.6 0 13.2 0 20 0 C20 0.99 20 1.98 20 3 C20.99 3 21.98 3 23 3 C23 7.62 23 12.24 23 17 C20.69 17 18.38 17 16 17 C16 12.38 16 7.76 16 3 C15.01 3 14.02 3 13 3 C13 7.62 13 12.24 13 17 C10.69 17 8.38 17 6 17 C6 12.38 6 7.76 6 3 C5.01 3 4.02 3 3 3 C3 7.62 3 12.24 3 17 C2.01 17 1.02 17 0 17 C0 11.39 0 5.78 0 0 Z " fill="#DD7BE1" transform="translate(293,36)"/>
<path d="M0 0 C6.6 0 13.2 0 20 0 C20 0.99 20 1.98 20 3 C20.99 3 21.98 3 23 3 C23 7.62 23 12.24 23 17 C20.69 17 18.38 17 16 17 C16 12.38 16 7.76 16 3 C15.01 3 14.02 3 13 3 C13 7.62 13 12.24 13 17 C10.69 17 8.38 17 6 17 C6 12.38 6 7.76 6 3 C5.01 3 4.02 3 3 3 C3 7.62 3 12.24 3 17 C2.01 17 1.02 17 0 17 C0 11.39 0 5.78 0 0 Z " fill="#DD7BE1" transform="translate(135,36)"/>
<path d="M0 0 C5.61 0 11.22 0 17 0 C17 0.99 17 1.98 17 3 C17.99 3 18.98 3 20 3 C20 7.62 20 12.24 20 17 C13.73 17 7.46 17 1 17 C0.67 15.68 0.34 14.36 0 13 C-0.99 13 -1.98 13 -3 13 C-3 12.01 -3 11.02 -3 10 C-1.68 10 -0.36 10 1 10 C1 9.01 1 8.02 1 7 C5.29 7 9.58 7 14 7 C14 5.68 14 4.36 14 3 C9.38 3 4.76 3 0 3 C0 2.01 0 1.02 0 0 Z " fill="#DE7BE2" transform="translate(269,36)"/>
<path d="M0 0 C6.6 0 13.2 0 20 0 C20 0.99 20 1.98 20 3 C20.99 3 21.98 3 23 3 C23 7.62 23 12.24 23 17 C21.02 17 19.04 17 17 17 C17 12.38 17 7.76 17 3 C13.7 3 10.4 3 7 3 C7 7.62 7 12.24 7 17 C4.69 17 2.38 17 0 17 C0 11.39 0 5.78 0 0 Z " fill="#E27DE5" transform="translate(187,36)"/>
<path d="M0 0 C3.3 0 6.6 0 10 0 C10 4.29 10 8.58 10 13 C11.98 13 13.96 13 16 13 C16 14.32 16 15.64 16 17 C9.73 17 3.46 17 -3 17 C-3.33 15.68 -3.66 14.36 -4 13 C-1.69 13 0.62 13 3 13 C3 9.7 3 6.4 3 3 C2.01 3 1.02 3 0 3 C0 2.01 0 1.02 0 0 Z " fill="#D878DD" transform="translate(115,36)"/>
<path d="M0 0 C2.97 0 5.94 0 9 0 C9 3.3 9 6.6 9 10 C6.03 10 3.06 10 0 10 C0 6.7 0 3.4 0 0 Z " fill="#062143" transform="translate(168,39)"/>
<path d="M0 0 C3.3 0 6.6 0 10 0 C10 0.99 10 1.98 10 3 C6.7 3 3.4 3 0 3 C0 2.01 0 1.02 0 0 Z " fill="#062143" transform="translate(273,46)"/>
<path d="M0 0 C2.31 0 4.62 0 7 0 C7 1.32 7 2.64 7 4 C4.69 4 2.38 4 0 4 C0 2.68 0 1.36 0 0 Z " fill="#B369C3" transform="translate(118,29)"/>
<path d="M0 0 C2.97 0 5.94 0 9 0 C9 0.99 9 1.98 9 3 C6.03 3 3.06 3 0 3 C0 2.01 0 1.02 0 0 Z " fill="#14274D" transform="translate(326,39)"/>
</svg>
